PathFileType	4	(X/Y/Z)	C:/Users/opensim2020/Desktop/walking_exp_matlab/subject06_walking21_straight_03.trc	
DataRate	CameraRate	NumFrames	NumMarkers	Units	OrigDataRate	OrigDataStartFrame	OrigNumFrames	
100.00	100.00	4	44	mm	100.00	1862	110	
Frame#	Time	LFHD			RFHD			LBHD			RBHD			C7			T10			CLAV			STRN			RBAK			LSHO			LUPA			LELB			LFRM			LWRA			LWRB			LFIN			RSHO			RUPA			RELB			RFRM			RWRA			RWRB			RFIN			LASI			RASI			LPSI			RPSI			LTHI			LKNE			LTIB			LANK			LHEE			LTOE			RTHI			RKNE			RTIB			RANK			RHEE			RTOE			*39			*40			*41			*42			*43			
		X1	Y1	Z1	X2	Y2	Z2	X3	Y3	Z3	X4	Y4	Z4	X5	Y5	Z5	X6	Y6	Z6	X7	Y7	Z7	X8	Y8	Z8	X9	Y9	Z9	X10	Y10	Z10	X11	Y11	Z11	X12	Y12	Z12	X13	Y13	Z13	X14	Y14	Z14	X15	Y15	Z15	X16	Y16	Z16	X17	Y17	Z17	X18	Y18	Z18	X19	Y19	Z19	X20	Y20	Z20	X21	Y21	Z21	X22	Y22	Z22	X23	Y23	Z23	X24	Y24	Z24	X25	Y25	Z25	X26	Y26	Z26	X27	Y27	Z27	X28	Y28	Z28	X29	Y29	Z29	X30	Y30	Z30	X31	Y31	Z31	X32	Y32	Z32	X33	Y33	Z33	X34	Y34	Z34	X35	Y35	Z35	X36	Y36	Z36	X37	Y37	Z37	X38	Y38	Z38	X39	Y39	Z39	X40	Y40	Z40	X41	Y41	Z41	X42	Y42	Z42	X43	Y43	Z43	X44	Y44	Z44	

97	0.960	-1059.52209	526.00244	1662.85229	-929.88049	514.44177	1641.08496	-1078.91235	399.39313	1598.86938	-951.18744	388.20041	1582.01685	-1027.23938	405.49854	1440.45435	-1033.93213	371.50562	1113.60828	-1025.47656	517.42535	1365.67041	-1041.30591	559.10028	1192.20203	-960.44769	332.23129	1267.43750	-1187.01697	464.16019	1402.11096	-1269.10303	477.41394	1205.97876	-1287.74988	487.26120	1095.13708	-1303.69666	576.81628	976.04590	-1247.91040	680.79565	911.17487	-1293.39563	640.23969	875.22919	-1290.19360	721.06116	838.83282	-864.98285	463.20850	1390.96252	-785.04993	397.99442	1198.81616	-772.63898	389.01523	1077.07861	-751.58917	382.25101	957.33527	-770.30066	421.94952	808.54266	-740.16699	362.83865	821.11536	-732.50482	383.37027	739.23993	-1151.21753	544.58008	952.49475	-931.88940	561.48242	967.49426	-1113.35583	388.08502	975.18500	-946.15479	406.90408	986.29181	-1200.98621	487.95236	627.41528	-1184.37219	500.15009	464.89334	-1183.99817	304.62543	314.76706	-1151.33948	168.08365	210.71469	-1106.08240	134.83417	235.00520	-1140.96863	209.95744	69.01205	-875.96564	561.21899	635.14856	-909.40387	595.74823	516.93280	-918.80725	566.04401	249.92511	-972.14490	559.52441	68.09782	-1018.54980	521.76202	44.89432	-964.10223	710.98096	34.33681	-1009.33710	417.59915	1688.29114												 
98	0.970	-1057.99146	539.77484	1665.52869	-928.34070	527.98444	1643.67236	-1077.51477	413.31995	1601.22168	-949.82434	402.02829	1584.31592	-1025.93298	419.66144	1442.87683	-1032.50793	385.91080	1116.05615	-1024.13489	531.69531	1368.27466	-1039.87927	573.34027	1194.78491	-959.03430	346.53024	1269.89429	-1185.75732	478.54868	1404.61096	-1267.51782	489.89896	1208.10071	-1285.83618	498.51331	1096.97742	-1302.76233	583.96320	974.35175	-1247.92053	686.11340	905.36224	-1293.47021	643.88031	871.39435	-1290.80432	723.22552	831.51569	-863.72778	477.23856	1393.57996	-783.75391	414.03040	1200.60693	-771.14203	406.86118	1078.90320	-750.34949	403.20782	959.03314	-768.63757	446.82867	811.71368	-739.10297	387.10696	822.25653	-730.81677	410.48904	741.46100	-1150.00269	558.42822	955.57867	-930.99933	575.69446	968.81506	-1111.98254	402.19662	978.02625	-944.78143	421.43329	988.45734	-1199.34131	508.62543	630.55798	-1181.98206	524.49249	468.31998	-1183.34851	331.50055	315.82489	-1152.06824	196.00879	209.42729	-1106.76917	161.15819	232.23007	-1144.09021	243.19481	70.03268	-875.81927	570.97992	636.27985	-908.72235	602.32501	516.99738	-918.27679	568.63513	250.18683	-971.95178	559.72565	68.27191	-1018.57703	521.52228	45.33613	-963.93646	711.08569	34.09144	-1007.76978	431.24719	1690.63928												 
99	0.980	-1056.50256	553.57489	1668.10535	-926.88983	541.65710	1646.18823	-1076.21326	427.25787	1603.58887	-948.63226	415.81448	1586.62170	-1024.80920	433.89655	1445.32666	-1031.08862	400.20013	1118.45850	-1022.85065	545.80847	1370.76648	-1038.54175	587.52722	1197.35095	-957.55072	360.68912	1272.41016	-1184.52551	492.86252	1407.04785	-1266.05225	502.31833	1210.21265	-1283.87451	509.60010	1098.65613	-1301.94446	590.77283	972.68884	-1248.14966	690.78375	899.54456	-1293.70581	646.69354	867.67542	-1291.29382	724.18658	823.93524	-862.54089	491.20944	1396.19067	-782.45459	430.00409	1202.60693	-769.89618	424.75479	1080.80261	-748.81696	423.91757	960.99640	-767.15521	471.85101	815.26617	-738.14709	411.36084	823.63043	-729.31995	437.67535	743.98370	-1148.84631	572.73187	958.62256	-930.08856	589.79163	970.34052	-1110.72766	416.36963	980.88464	-943.43951	435.13678	990.56409	-1197.70520	528.87024	633.88678	-1179.74866	548.47479	472.03003	-1182.81836	358.64731	315.91330	-1152.57031	224.45581	206.74846	-1106.80457	188.53568	227.84914	-1147.04773	277.15973	70.10220	-875.44366	580.70984	637.39539	-907.97858	608.51636	517.08557	-917.79938	572.42041	250.33850	-971.71399	559.99933	68.49239	-1018.19244	521.67725	45.65854	-963.44128	711.04700	33.88614	-1006.48712	444.94229	1693.04211												 
100	0.990	-1055.04126	567.44666	1670.47302	-925.56677	555.42957	1648.49390	-1075.12085	441.27509	1605.91980	-947.55402	429.49002	1588.85132	-1023.72180	447.87173	1447.64099	-1029.52344	414.25485	1120.79028	-1021.66089	559.81329	1373.15369	-1037.25647	601.70001	1199.79895	-956.06293	375.06015	1274.57227	-1183.31616	507.09045	1409.34460	-1264.78333	514.71832	1212.29846	-1282.24963	520.35455	1100.43286	-1301.25562	597.08417	971.20691	-1248.58374	694.81775	893.84802	-1293.93237	648.94354	864.08417	-1291.81738	724.24341	816.39148	-861.44305	505.24557	1398.69702	-781.17108	445.94180	1204.72949	-768.55652	442.40939	1082.79541	-747.57501	444.74023	963.02618	-765.43793	497.25845	819.16357	-737.25494	436.00021	825.35828	-728.23242	464.65088	746.73834	-1147.60474	587.09357	961.52356	-929.00293	603.66925	972.05182	-1109.70520	430.64783	983.60699	-942.41107	449.03918	992.49573	-1196.35144	548.64343	637.36774	-1177.78601	571.89453	475.88623	-1182.41870	385.39105	315.20117	-1152.68872	253.80351	202.78673	-1106.63477	216.75876	221.87474	-1149.57373	312.96930	69.56684	-875.26331	589.86835	638.34277	-907.03967	614.69696	517.03961	-917.47498	576.02692	250.43210	-971.53961	560.26068	68.72998	-1018.03192	521.75134	46.01346	-963.30273	711.32294	33.59272	-1005.28619	458.72787	1695.31836												 
